<svg width="13" height="13" viewBox="0 0 13 13" fill="none" xmlns="http://www.w3.org/2000/svg">
<path d="M13 6.5C13 7.38239 12.2647 8.11767 11.3823 8.11767H8.11768V11.3823C8.11768 12.2647 7.38239 13 6.5 13C5.61761 13 4.88233 12.2647 4.88233 11.3823V8.11767H1.61767C0.735282 8.11767 0 7.38239 0 6.5C0 5.61761 0.735282 4.88233 1.61767 4.88233H4.88233V1.61767C4.88233 0.735282 5.61761 0 6.5 0C7.38239 0 8.11768 0.735282 8.11768 1.61767V4.88233H11.3823C12.2647 4.88233 13 5.61761 13 6.5Z" fill="#FF9057"/>
</svg>
