<svg width="35" height="35" viewBox="0 0 35 35" fill="none" xmlns="http://www.w3.org/2000/svg">
<path id="path238" opacity="0.15" d="M12.5094 20.8934C12.3958 20.7835 12.3214 20.6335 12.3259 20.4608L12.3451 20.3431C12.3022 20.3449 12.2597 20.3468 12.2168 20.3472C12.1205 20.507 11.9607 20.6007 11.7243 20.5804C11.801 20.7669 11.8585 20.9594 11.8754 21.1625L11.8649 21.2257C12.2625 21.138 12.2999 21.0836 12.5094 20.8934ZM18.28 14.9432C18.3124 15.0416 18.3361 15.1477 18.3526 15.2562C18.4169 15.1745 18.4849 15.0873 18.5598 14.9913C18.4603 15.0065 18.3653 14.9871 18.28 14.9432ZM17.356 13.5297C17.3145 13.5828 17.2223 13.6977 17.1771 13.7527C17.0041 13.9923 16.785 14.3186 16.444 14.3505C16.4773 14.4451 16.5019 14.5458 16.5234 14.6459C16.8995 14.2152 17.2246 13.8159 17.54 13.2841C17.4852 13.3593 17.3953 13.4803 17.356 13.5297ZM12.1301 10.7238C12.3862 11.1832 12.6327 11.648 12.8682 12.1184C12.9185 12.0095 13.0148 11.9222 13.1622 11.8885C13.2398 11.8738 13.3106 11.8784 13.3759 11.8959C12.9614 11.5045 12.5473 11.1125 12.1301 10.7238ZM15.184 17.9139C15.1329 17.8534 15.0854 17.7902 15.0361 17.7288C15.0649 17.9061 15.0827 18.0769 15.0872 18.2389C15.1795 18.2832 15.2598 18.3511 15.3223 18.4337C15.4077 18.3608 15.4917 18.2874 15.5766 18.214C15.4246 18.1466 15.2822 18.0381 15.184 17.9139ZM14.103 12.6498C14.4774 13.1927 14.8307 13.7508 15.1288 14.3408C15.2064 14.4964 15.2845 14.6524 15.3616 14.8084C15.384 14.6109 15.3794 14.1289 15.6227 13.9396C15.0457 13.4461 14.4842 12.9346 13.9291 12.4157C13.988 12.5002 14.0451 12.5819 14.103 12.6498ZM9.513 8.34174C9.96356 8.86939 10.3612 9.43953 10.7446 10.0189C10.6898 9.90071 10.6341 9.78345 10.5835 9.66343C10.5269 9.51616 10.4365 9.36105 10.4657 9.19855L10.4707 9.17316C10.1494 8.86847 9.82935 8.56241 9.50935 8.25634L9.513 8.34174ZM1.45131 3.68052C1.47551 3.38138 1.49422 2.99453 1.6581 2.75078V2.75031C1.64257 2.70646 1.63163 2.66352 1.62524 2.62151L1.61383 2.61044L1.58142 2.57674L1.51979 2.5158L1.47095 2.47055L1.46912 2.4821L1.47049 2.47055L1.46865 2.46871C1.40155 2.9285 1.37098 3.16533 1.33309 3.64313L1.45131 3.68052ZM9.70336 19.0062C9.51346 18.8229 9.34228 18.6595 9.22177 18.5413C9.38747 18.7403 9.55363 18.9369 9.71843 19.1303C9.79603 19.2167 9.87592 19.3072 9.95717 19.3999C9.87272 19.2661 9.78781 19.1345 9.70336 19.0062ZM13.0467 19.0759C13.0467 19.0149 13.0449 18.9535 13.0394 18.8926L13.0139 18.7698C12.9084 18.6096 12.8052 18.448 12.7034 18.286C12.493 17.9218 12.2803 17.5594 12.0657 17.1979C12.0853 17.2598 12.1073 17.3202 12.1246 17.383C12.162 17.5474 12.1237 17.7237 12.0374 17.8691C12.4003 18.3589 12.739 18.7813 13.033 19.0791L13.0467 19.0759ZM4.53038 4.31066C4.64404 4.42699 4.75541 4.54472 4.86771 4.66198C5.70401 5.39276 6.57226 6.08476 7.43732 6.78092C7.51127 6.84324 7.59025 6.90879 7.67196 6.97573C7.52817 6.83123 7.37935 6.68444 7.22688 6.53533C6.36547 5.65775 5.20324 4.60243 4.09031 3.83518C4.23593 3.99444 4.38202 4.1537 4.53038 4.31066ZM13.8022 18.6096C13.8565 18.5648 13.9118 18.5224 13.9684 18.4827C13.8168 18.3155 13.679 18.1212 13.5708 17.9495C13.6488 18.1475 13.7169 18.3483 13.7634 18.5551L13.8022 18.6096ZM8.3882 8.62103C8.34803 8.5227 8.31882 8.42068 8.32019 8.31312L8.32064 8.28126C8.24486 8.21894 8.17776 8.15939 8.12527 8.11138C8.00977 8.0209 7.79202 7.84409 7.53227 7.63865C7.81667 7.96642 8.10197 8.29465 8.3882 8.62103ZM7.86688 12.1051L7.83722 12.0967C7.99014 12.2989 8.14215 12.5021 8.29188 12.7066C8.57491 13.0662 8.85519 13.4281 9.13366 13.7919C8.72783 13.2102 8.31334 12.6567 7.86688 12.1051ZM12.2835 14.1072C12.1337 13.8127 11.9776 13.5172 11.8174 13.2218L11.7804 13.2264C11.9543 13.5278 12.1232 13.8228 12.2835 14.1072ZM5.04757 11.8447C4.97087 11.7602 4.89465 11.6753 4.81705 11.5912C4.33544 11.0179 3.85979 10.439 3.35308 9.88824C3.18783 9.71236 3.02623 9.53323 2.86509 9.35319C2.85413 9.54431 2.86234 9.71697 2.89567 9.89055L2.90115 9.89978C3.6708 10.4819 4.37241 11.1522 5.04757 11.8447ZM7.31818 9.9658C6.85849 9.33242 6.40016 8.69766 5.94504 8.06105C6.03999 8.20232 6.13631 8.34313 6.23035 8.48485C6.44125 8.79877 6.63162 9.12515 6.79276 9.46769C6.86078 9.5891 6.92286 9.73313 6.9539 9.87855C7.15567 10.0951 7.35561 10.3125 7.55418 10.5318C7.46197 10.3093 7.39076 10.1348 7.31818 9.9658ZM3.23347 8.41699C3.55119 8.5204 3.77032 8.78584 3.99582 9.01989C4.26881 9.31396 4.53858 9.61126 4.80655 9.9104C4.74492 9.80238 4.68558 9.69343 4.62486 9.5854L4.58927 9.53877C4.09808 9.0125 3.5909 8.50239 3.06547 8.01074C3.04082 8.15431 3.01801 8.28865 2.99655 8.41237C3.07279 8.39206 3.1545 8.3916 3.23347 8.41699ZM3.7799 5.20348C3.88992 5.33551 4.00038 5.46708 4.11039 5.59912C4.45915 6.00721 4.78736 6.43192 5.10554 6.86494C4.92203 6.59857 4.74537 6.32805 4.59381 6.0446C4.32357 5.76299 4.05197 5.48324 3.7799 5.20348ZM17.6226 15.7894C17.5578 15.704 17.5437 15.5803 17.6222 15.4875L17.6199 15.4667L17.5856 15.5032C17.5277 15.5969 17.341 15.8254 17.2898 15.9459C17.1693 16.1467 17.0976 16.2926 17.0511 16.4173C17.1885 16.3743 17.235 16.3406 17.3729 16.222C17.4793 16.119 17.5519 16.0323 17.6039 15.9565C17.6121 15.9011 17.6185 15.8453 17.6226 15.7894ZM14.1793 14.9548L14.2181 15.0259C14.2888 15.1533 14.3678 15.2922 14.4518 15.4363C14.2573 15.0236 14.0547 14.6155 13.8406 14.2134C13.9113 14.3786 13.9803 14.5448 14.0492 14.711C14.0926 14.7923 14.1359 14.8735 14.1793 14.9548ZM20.7793 13.0519C20.9098 13.1631 21.0386 13.2813 21.0792 13.4563C21.1262 13.6165 21.0678 13.7891 20.9514 13.8999C21.0203 13.9844 21.1034 14.086 21.2107 14.2212C21.5567 14.6483 21.9178 15.0614 22.288 15.4663L22.262 15.3726C22.1748 15.1196 22.0657 14.8255 21.9506 14.5236C21.8438 14.3279 21.7439 14.128 21.6585 13.9207C21.5713 13.7148 21.4928 13.5057 21.4207 13.2942C21.1851 12.9088 20.9505 12.5224 20.719 12.1346L20.6925 12.0852C20.5839 12.2786 20.4657 12.4739 20.336 12.6618C20.4899 12.7841 20.6327 12.9212 20.7793 13.0519ZM21.6827 9.71882L21.711 9.8273L21.7133 9.81622C21.7228 9.71559 21.7612 9.62327 21.8219 9.54894L21.8388 9.46769L21.8552 9.34858C21.8575 9.32735 21.8698 9.22394 21.8739 9.15608C21.8123 9.34443 21.7448 9.53139 21.6827 9.71882ZM20.7852 8.81908L20.7122 8.9174L20.8272 8.88601C20.8505 8.83801 20.872 8.79276 20.8957 8.74383C20.9272 8.69304 20.9564 8.63673 20.9852 8.57949C20.9171 8.65843 20.8505 8.73829 20.7852 8.81908ZM22.4619 13.075L22.4651 13.1031C22.5706 13.1465 22.6564 13.2416 22.707 13.3506C22.8289 13.5334 22.959 13.7106 23.0832 13.8921C23.2622 14.1307 23.4694 14.399 23.689 14.6852C23.6538 14.6145 23.6191 14.5439 23.5844 14.4733C23.1663 13.893 22.8436 13.4544 22.4487 12.9651L22.4619 13.075ZM22.9805 17.4421C23.133 17.6836 23.2877 17.9241 23.4425 18.1641C23.5922 18.1369 23.7588 18.1734 23.904 18.2472C23.7752 18.0238 23.6488 17.7971 23.5251 17.5663C23.332 17.4029 23.1517 17.2205 22.9659 17.0525C22.818 16.9085 22.6682 16.7663 22.5185 16.6236C22.6765 16.9015 22.8253 17.1661 22.9805 17.4421ZM22.5432 9.32596C22.5377 9.3809 22.5313 9.43491 22.5244 9.488C22.6007 9.53555 22.6714 9.59464 22.7385 9.65788C22.6733 9.54755 22.6084 9.4363 22.5432 9.32596ZM27.5733 19.1977C28.3566 20.5356 29.1217 21.885 29.8475 23.2556C30.0004 23.5778 30.1616 23.8968 30.3246 24.2154C30.1064 23.6909 29.8882 23.1767 29.6695 22.6744C28.9113 21.2539 28.2452 19.7882 27.5609 18.3308C27.0816 17.4818 26.6133 16.6264 26.149 15.7691C26.6644 16.9976 27.1287 18.183 27.5733 19.1977ZM29.8293 26.7982C29.7914 26.7248 29.7535 26.6519 29.7151 26.5785C29.6617 26.5217 29.6179 26.4525 29.5695 26.3934C29.3582 26.0947 29.3522 26.0859 29.1135 25.7522C28.5401 24.9628 27.9777 24.166 27.4153 23.3692C27.1597 23.0257 26.8365 22.613 26.4772 22.1707C27.6089 23.7025 28.7227 25.2476 29.8293 26.7982ZM0.00834274 9.86146C0.104664 8.84308 0.232933 7.821 0.196869 6.79569C0.159893 5.94719 0.0444069 5.10284 0.0549049 4.25203C0.0608406 3.69714 0.139801 3.14502 0.212383 2.59566C0.2206 2.54396 0.228374 2.49224 0.236591 2.44054C0.279045 2.092 0.326962 1.74439 0.382656 1.3977C0.446564 1.02792 0.494961 0.62352 0.712254 0.311447C0.908546 0.00630188 1.34814 -0.109573 1.64258 0.123554C2.40995 0.757854 2.5428 0.878807 3.21339 1.37092C4.55411 2.33345 5.91812 3.27428 7.16389 4.36237C9.12179 6.09538 10.9318 7.98719 12.8431 9.77144C13.9907 10.8683 15.1329 11.9712 16.3107 13.0348L16.3449 12.9919C16.6142 12.6655 16.4535 12.8594 16.7576 12.4693C17.1337 12.0607 17.2351 11.9393 17.3953 11.6914C17.7294 11.1753 17.681 11.2459 18.0385 10.7451C18.2695 10.4293 18.5498 10.1542 18.7876 9.84346C18.8232 9.7973 18.8593 9.7516 18.8953 9.70589L18.9524 9.62788C19.2614 9.23318 21.6165 5.60373 22.3368 6.99512C22.3729 7.05191 22.5596 7.58557 22.9129 8.31173C23.6086 9.53878 24.2559 10.7945 24.9425 12.0275C25.9842 13.9502 26.9547 15.9132 28.0435 17.81C28.7757 19.3247 29.4413 20.8721 30.2337 22.3572C30.5715 23.0585 31.0372 24.3566 31.2252 24.7726C31.6936 25.9008 32.167 27.0291 32.5682 28.1836C32.8344 28.8821 33.1005 29.5801 33.3666 30.2786C33.6766 30.8358 33.9377 31.375 34.1098 31.8652C34.1783 32.0301 34.1801 32.1838 34.1368 32.3112C34.2258 32.5471 34.3157 32.7825 34.4043 33.0184C34.538 33.3757 34.6786 33.7307 34.8169 34.0862C34.8343 34.1481 34.8283 34.2127 34.8046 34.2713L34.8315 34.318C34.9046 34.4218 34.9717 34.5289 34.9954 34.654C35.0397 34.8909 34.7544 35.0898 34.5476 34.9578C34.5052 34.9278 34.4709 34.8895 34.4403 34.8479L34.4394 34.8484C34.0733 34.2649 33.5743 33.5493 33.305 33.1892C32.3268 31.9922 31.2983 30.8335 30.4332 29.5464C29.7717 28.571 29.2979 27.8983 28.6396 27.0411C28.2384 26.4903 27.6956 25.8791 27.1907 25.1156C26.5635 24.2306 26.1869 23.6009 25.6231 22.8097C24.7485 21.6025 24.2053 20.7923 23.347 19.6058C22.9905 19.0736 22.5911 18.5731 22.2277 18.0455C21.7927 17.3756 21.5549 16.9874 20.9765 16.2063C20.6976 15.8014 20.4305 15.3887 20.1676 14.9737C20.011 15.1556 19.8635 15.3463 19.7102 15.5314C19.4144 15.9445 18.1279 17.491 17.3738 18.2652C16.5494 19.0352 15.6647 19.7388 14.8234 20.488C15.1105 20.2618 14.4984 20.7826 14.3692 20.8754C14.0775 21.1006 13.7794 21.3167 13.4854 21.5387L13.5991 21.4496C13.2667 21.7003 12.955 21.9962 12.5628 22.1481C11.9836 22.3923 11.2568 22.3522 10.7962 21.8864C9.75859 20.8689 8.68173 19.8934 7.66238 18.8561C7.09815 18.3132 6.51977 17.7847 6.00119 17.1947C4.82617 15.9981 3.76164 14.6976 2.61036 13.4784C1.9845 12.8414 1.47643 12.0967 0.839619 11.4703C0.561157 11.1716 0.193222 10.9265 0.0425797 10.5336C-0.0181351 10.3166 0.00195312 10.0844 0.00834274 9.86146Z" fill="#1F2B29"/>
</svg>
