<svg width="37" height="32" viewBox="0 0 37 32" fill="none" xmlns="http://www.w3.org/2000/svg">
<path id="path264" d="M11.2306 28.3752C10.8699 28.062 10.7649 27.943 10.5424 27.6313C10.3854 27.3989 10.2251 27.1669 10.1057 26.9103C10.0807 26.8524 10.0368 26.7501 10.0247 26.7167C9.92691 26.4697 9.84968 26.2134 9.80067 25.9497L9.79181 25.8938C9.77494 25.7864 9.76161 25.6782 9.75262 25.5695C9.73831 25.5311 9.74299 25.2533 9.74382 25.1668C9.81735 24.3479 9.93998 24.0442 10.4553 23.4908C10.585 23.3733 10.695 23.2754 10.9593 23.1815C11.1947 23.1088 11.1131 23.1149 11.3376 23.0969C12.1196 23.2219 12.5139 23.4264 13.1194 24.051C13.534 24.7236 13.7141 25.5324 13.542 26.617C13.3843 27.5438 13.1501 28.3193 12.6871 28.9647C12.109 28.84 11.555 28.6289 11.2306 28.3752ZM19.8693 21.3657C19.1859 21.6571 18.7572 21.6907 18.1275 21.62C17.632 21.5389 17.5302 21.5132 17.12 21.2657C17.0657 21.2322 16.5933 20.9046 16.3777 20.6614C16.1767 20.4562 16.0307 20.2647 15.8311 19.8884C15.7752 19.7574 15.7331 19.62 15.6916 19.4831C15.6673 19.4207 15.6106 19.1642 15.5911 19.076C15.5293 18.548 15.5496 18.379 15.6285 17.9096C15.7116 17.5147 15.7042 17.5279 15.8709 17.1869C16.0934 16.769 16.3827 16.5207 16.9149 16.1681C17.3629 15.8844 17.5449 15.7941 18.0997 15.6293C18.6966 15.4559 19.5351 15.5202 20.3771 15.6751C20.7815 15.7347 21.2342 15.9403 21.606 16.1874C21.6514 16.7111 21.7025 17.2358 21.6779 17.7645C21.6123 19.2376 21.0881 20.8262 19.8693 21.3657ZM29.6198 11.9796C29.4618 12.4196 29.1243 12.7883 28.6841 13.2249C28.5781 13.3168 28.4651 13.3994 28.349 13.4761C28.2328 13.5534 28.1117 13.6223 27.989 13.6873C27.6666 13.8518 27.3258 13.9712 26.9779 14.0539C26.7847 14.0883 26.4977 14.134 26.1619 13.8886C26.318 13.9957 26.0428 13.803 25.9965 13.7534C25.687 13.4806 25.6485 13.4297 25.5579 13.2049C25.4331 12.8951 25.6408 12.1907 25.8731 11.8983C26.4907 10.9964 27.4293 10.8072 28.5551 10.7131C28.976 10.6817 29.3617 10.6945 29.7561 10.7044C29.7789 11.2629 29.7656 11.6474 29.6198 11.9796ZM0.665741 22.2737C0.547596 22.7353 0.418715 23.1987 0.399481 23.6748C0.37898 24.2489 0.474178 24.8171 0.592295 25.3712C0.715316 25.8245 0.822762 26.2873 1.01669 26.7127C1.39826 27.529 1.89977 28.2828 2.47037 28.967C3.03707 29.6526 3.70543 30.2548 4.48316 30.6791C4.9285 30.9185 5.39913 31.1054 5.87496 31.2753C6.35553 31.446 6.84519 31.5989 7.3533 31.6704C7.80343 31.7438 8.26347 31.7931 8.72309 31.7498C9.16324 31.7019 9.59344 31.5764 10.0237 31.4651C10.7205 31.2794 11.4213 30.9989 11.983 30.5129C12.3041 30.2343 12.6265 29.9482 12.9076 29.6257C13.2689 29.6754 13.6357 29.6929 13.9959 29.6848C15.4041 29.6135 16.8016 29.2096 18.1072 28.6301C19.0403 28.1477 19.9106 27.5184 20.6929 26.8028C21.5459 25.9649 22.2566 24.9906 22.8568 23.9522C23.373 22.9725 23.8041 21.9145 23.9264 20.8123C24.0898 19.0392 23.5816 17.1398 22.3028 15.9461C22.2603 15.9097 22.2172 15.8746 22.1734 15.8401C22.1162 15.1854 22.0438 14.5327 21.9998 13.8764C21.9756 13.58 21.981 12.9129 21.9877 12.892C22.0544 12.4679 22.1446 12.0457 22.2656 11.6323C22.5775 10.5815 23.1155 9.41608 24.0353 8.55573C24.6236 8.02495 25.6194 7.53892 26.357 7.58291C27.9438 7.66004 29.3811 8.74094 29.6897 10.1028C29.5113 10.0974 29.3202 10.0909 29.0704 10.0882C28.238 10.0998 27.3813 10.189 26.6013 10.5403C25.8172 10.8821 25.1947 11.6247 24.9919 12.4713C24.8872 12.9314 24.91 13.4447 25.2054 13.8125C25.5763 14.2625 26.0846 14.6938 26.6967 14.6876C27.4435 14.6418 28.1724 14.3141 28.7982 13.8851C29.1185 13.657 29.3855 13.3605 29.6383 13.0582C29.8115 12.8412 29.9865 12.6166 30.0968 12.3596C30.2366 12.0428 30.3355 11.7113 30.339 11.3655C30.3529 11.1473 30.3584 10.9289 30.352 10.7113C30.6357 10.7084 30.9335 10.6932 31.2601 10.6505C32.0303 10.5486 32.7953 10.3461 33.5152 10.0261C34.1454 9.70416 34.7194 9.25227 35.1928 8.71371C35.5388 8.31327 35.8132 7.84011 35.9879 7.33946C36.1768 6.71666 36.2313 6.05431 36.1809 5.4141C36.0995 4.53594 35.748 3.71766 35.3072 2.98213C34.9262 2.30537 34.4158 1.72032 33.8226 1.23502C33.6764 1.11287 33.5302 0.990717 33.3835 0.868894C33.2688 0.739038 33.0544 0.717276 32.9333 0.864027C32.8284 0.985938 32.8352 1.17664 32.9507 1.27952C33.0111 1.33005 33.0702 1.3825 33.1302 1.43372C33.4161 1.67738 33.6991 1.92531 33.9665 2.1902C34.3745 2.58876 34.7521 3.18236 35.1029 3.85531C35.4646 4.56541 35.6868 5.48661 35.5949 6.26875C35.5623 6.58685 35.5149 6.90683 35.4174 7.21362C35.2889 7.56372 35.0408 7.95488 34.965 8.06398C34.5052 8.69388 33.7721 9.24421 33.2494 9.49637C32.2739 9.88697 31.632 10.0377 30.6223 10.0965C30.5016 10.1025 30.3945 10.1063 30.296 10.108C29.9898 8.31863 28.1886 7.07428 26.477 6.98406C25.4747 6.92778 24.4882 7.40606 23.7121 8.06136C22.699 8.96099 22.0677 10.2348 21.6888 11.524C21.5048 12.1655 21.3564 12.8257 21.3917 13.4907C21.4046 14.1438 21.4829 14.7893 21.5435 15.4373C21.1715 15.247 20.7691 15.1157 20.3538 15.0502C19.7736 14.9535 19.1831 14.8941 18.5904 14.9313C17.84 14.9996 17.1201 15.3071 16.4878 15.739C15.9675 16.087 15.488 16.5397 15.2457 17.137C14.9545 17.8764 14.8804 18.7181 15.071 19.4757C15.2133 20.1567 15.5819 20.7521 16.0711 21.2174C16.4442 21.5571 16.8577 21.8723 17.3277 22.0592C18.2676 22.3736 19.3544 22.3255 20.2571 21.8307C21.3106 21.2881 21.879 20.1203 22.1123 18.9918C22.2689 18.2582 22.2976 17.5112 22.251 16.7716C23.0828 17.8894 23.3864 18.9551 23.36 20.3981C23.3355 21.5794 22.8111 22.9385 22.0194 24.2085C21.5976 24.8979 20.8953 25.8061 20.1375 26.5189C19.7356 26.869 19.3043 27.1818 18.87 27.4865C18.5922 27.6744 18.308 27.8525 18.0146 28.012C17.4602 28.2875 16.8723 28.4845 16.2866 28.667C15.4322 28.9151 14.8614 29.0307 13.9194 29.0809C13.7339 29.0912 13.5307 29.0843 13.321 29.0639C13.787 28.2744 14.0458 27.3633 14.1469 26.4611C14.2429 25.7462 14.2009 25.0073 13.9332 24.3479C13.7981 24.05 13.6755 23.733 13.4395 23.5047C12.9162 22.961 12.2384 22.6151 11.4944 22.4988C10.7467 22.4417 10.0331 22.9364 9.63326 23.5784C9.32723 24.0122 9.19833 24.5409 9.16537 25.0609C9.05849 26.4898 9.74784 27.8624 10.752 28.7764C11.1905 29.1192 11.6991 29.3482 12.2358 29.4913C12.0877 29.6423 11.9517 29.7673 11.8736 29.8337C11.6093 30.0792 11.3247 30.3025 11.0072 30.4681C10.9857 30.478 10.9455 30.4976 10.9177 30.5112C10.6823 30.6219 10.4424 30.7199 10.1959 30.7986C9.62065 30.9491 9.29639 31.0656 8.82175 31.1335C8.29048 31.1885 8.06414 31.1658 7.62879 31.1007C6.85085 30.9826 6.44058 30.8468 5.77788 30.5963C5.04068 30.3049 4.37786 29.9808 3.9211 29.5692C3.12223 28.903 2.7016 28.3669 2.13693 27.5374C1.73894 26.882 1.46474 26.4831 1.2792 25.8192C1.08348 25.1778 0.978843 24.7279 0.919926 24.3173C0.799013 23.6499 0.864641 23.2576 1.03283 22.5816C1.05052 22.4523 1.13954 22.3045 1.05945 22.1847C0.969656 22.0217 0.694171 22.0838 0.665741 22.2737Z" fill="#364E4D" fill-opacity="0.34"/>
</svg>
