<svg width="19" height="20" viewBox="0 0 19 20" fill="none" xmlns="http://www.w3.org/2000/svg">
<path id="path232" d="M9.11981 1.49921C9.31224 1.37615 9.54074 1.32148 9.78009 1.31506C9.68255 1.28755 9.58252 1.26812 9.48198 1.25704L9.40752 1.26439L9.34297 1.28376L9.24526 1.3535C9.20197 1.39825 9.16015 1.4473 9.11981 1.49921ZM5.8728 8.97386C6.19017 9.11571 6.49708 9.27609 6.78685 9.44958C6.98682 9.59146 7.24733 9.68697 7.42402 9.86044C7.51399 9.90788 7.60853 9.95183 7.67005 10.0326C7.75027 10.1118 7.79291 10.2329 7.78282 10.346C8.73919 10.7937 9.67557 11.2853 10.591 11.8111C10.5372 11.7233 10.4853 11.6343 10.4318 11.5459C9.45862 10.8274 8.47612 10.2131 7.45011 9.64984C6.97502 9.36166 6.4298 9.13806 5.8728 8.97386ZM10.2338 3.71872C10.2997 3.92266 10.3929 4.15423 10.5369 4.47853C10.7528 4.80498 11.1028 5.33066 11.5131 5.93515C11.4021 5.70779 11.2917 5.48789 11.1834 5.27977C10.9007 4.74105 10.6121 4.19808 10.2338 3.71872ZM3.50951 13.9517C3.03714 13.6477 2.57527 13.328 2.11934 12.9991C1.60358 12.5859 1.20855 12.016 0.952145 11.41C0.893833 11.2477 0.849496 11.0744 0.818078 10.8966C0.733583 10.763 0.654802 10.6251 0.589442 10.4773C0.0745801 9.49257 0.50111 8.37989 1.3601 7.75147C2.23324 7.18651 3.32912 7.16892 4.33078 7.28292C6.02995 7.42562 7.58284 8.13262 9.00564 9.03891C8.95987 8.95074 8.91209 8.86374 8.86718 8.77527C8.75179 8.54507 8.62428 8.31183 8.5212 8.07547C8.13992 7.1838 7.66057 6.32447 7.4126 5.38255C7.07102 3.94403 7.11382 2.32643 7.92342 1.04761C8.85652 -0.541783 10.2545 -0.0133496 11.4784 0.906148C12.0536 1.3677 12.4935 1.97017 12.9399 2.5507C13.5972 3.42091 14.1883 4.34329 14.6826 5.31584C15.0364 6.0524 15.4085 6.66044 15.771 7.69186C15.9784 8.31766 16.1397 8.95745 16.2745 9.60297C16.3685 9.82993 16.4644 10.062 16.562 10.3022C16.9858 11.556 17.1365 12.7648 17.3768 13.6579C17.646 14.6474 17.7709 15.19 17.9231 15.9113C18.0908 16.5392 18.1807 17.1843 18.1426 17.835C18.1303 17.9793 18.1302 18.1203 18.1388 17.8868C18.1365 17.9723 18.1345 18.0587 18.1201 18.1426C18.0392 18.4495 17.9742 18.8015 17.7016 18.9979C17.5194 19.1353 17.2998 19.157 17.0807 19.1454C17.0724 19.1478 17.0396 19.1476 16.9687 19.1402C16.4081 19.1288 15.8548 19.0216 15.3169 18.8681C15.0633 18.8333 14.8187 18.6904 14.5726 18.6212C13.3853 18.1891 11.7244 17.7859 10.1071 16.9745C8.8637 16.4784 7.64105 15.9325 6.40264 15.4231C5.90361 15.187 5.3776 15.015 4.87688 14.7823C4.39432 14.5521 3.95247 14.25 3.50951 13.9517Z" fill="#1F2B29" fill-opacity="0.15"/>
</svg>
